<svg width="423" height="470" viewBox="0 0 423 470" fill="none" xmlns="http://www.w3.org/2000/svg">
<path d="M415.477 117.836C410.258 106.931 402.906 97.1829 393.857 89.167L323.357 25.2495C307.84 11.0267 288.137 2.20612 267.193 0.105504H122.434C106.867 -0.55461 91.3237 1.88797 76.7093 7.29108C62.095 12.6942 48.7013 20.9499 37.3076 31.5778C25.914 42.2057 16.748 54.9936 10.3431 69.197C3.93819 83.4005 0.422284 98.736 0 114.311V356.352C0.831324 379.839 8.68773 402.538 22.554 421.515C36.4202 440.491 55.6591 454.873 77.7843 462.802C92.1756 468.244 107.539 470.645 122.904 469.852H300.562C316.131 470.519 331.677 468.081 346.294 462.68C360.911 457.279 374.307 449.024 385.702 438.394C397.097 427.765 406.263 414.975 412.666 400.769C419.069 386.562 422.58 371.224 422.996 355.647V154.259C423.11 141.722 420.546 129.304 415.477 117.836ZM109.979 108.436H186.588C192.821 108.436 198.798 110.912 203.205 115.319C207.612 119.726 210.088 125.703 210.088 131.935C210.088 138.168 207.612 144.145 203.205 148.552C198.798 152.959 192.821 155.434 186.588 155.434H109.979C103.747 155.434 97.7693 152.959 93.3622 148.552C88.9551 144.145 86.4793 138.168 86.4793 131.935C86.4793 125.703 88.9551 119.726 93.3622 115.319C97.7693 110.912 103.747 108.436 109.979 108.436ZM314.427 360.111H109.979C103.747 360.111 97.7693 357.636 93.3622 353.229C88.9551 348.822 86.4793 342.845 86.4793 336.612C86.4793 330.38 88.9551 324.403 93.3622 319.996C97.7693 315.589 103.747 313.113 109.979 313.113H314.427C320.029 313.911 325.155 316.704 328.863 320.978C332.571 325.251 334.612 330.719 334.612 336.377C334.612 342.035 332.571 347.503 328.863 351.777C325.155 356.051 320.029 358.843 314.427 359.641V360.111ZM314.427 257.89H109.979C103.747 257.89 97.7693 255.415 93.3622 251.008C88.9551 246.601 86.4793 240.624 86.4793 234.391C86.4793 228.159 88.9551 222.182 93.3622 217.775C97.7693 213.368 103.747 210.892 109.979 210.892H314.427C320.66 210.892 326.637 213.368 331.044 217.775C335.451 222.182 337.927 228.159 337.927 234.391C337.927 240.624 335.451 246.601 331.044 251.008C326.637 255.415 320.66 257.89 314.427 257.89ZM306.907 127.001C303.555 127.032 300.229 126.398 297.123 125.137C294.016 123.875 291.191 122.011 288.809 119.651C286.427 117.291 284.537 114.483 283.247 111.388C281.957 108.294 281.292 104.974 281.293 101.622V39.349C296.803 43.1088 357.197 105.146 370.357 115.486C374.249 118.765 377.582 122.653 380.227 127.001H306.907Z" fill="#7A1E48"/>
</svg>
