<svg width="469" height="436" viewBox="0 0 469 436" fill="none" xmlns="http://www.w3.org/2000/svg">
<path d="M359.137 0H111.862C82.1947 0 53.7421 11.7943 32.7638 32.7882C11.7855 53.7822 0 82.256 0 111.946V324.054C0 338.755 2.89341 353.312 8.51503 366.894C14.1366 380.476 22.3764 392.817 32.7638 403.212C53.7421 424.206 82.1947 436 111.862 436H359.137C388.786 435.938 417.203 424.123 438.167 403.143C459.132 382.163 470.938 353.725 471 324.054V111.946C470.938 82.2752 459.132 53.8374 438.167 32.857C417.203 11.8765 388.786 0.0622684 359.137 0ZM273.18 196.082C261.593 202.695 248.485 206.173 235.147 206.173C221.808 206.173 208.7 202.695 197.113 196.082L35.796 103.462C37.8819 84.7325 46.794 67.4303 60.8277 54.8645C74.8614 42.2987 93.0315 35.3514 111.862 35.3514H359.137C377.954 35.403 396.096 42.3682 410.119 54.9242C424.142 67.4803 433.068 84.7528 435.204 103.462L273.18 196.082Z" fill="#7A1E48"/>
</svg>
