<svg width="451" height="451" viewBox="0 0 451 451" fill="none" xmlns="http://www.w3.org/2000/svg">
<path d="M348.149 0H102.851C75.5733 0 49.4127 10.8361 30.1244 30.1244C10.8361 49.4127 0 75.5733 0 102.851V348.149C0 375.427 10.8361 401.587 30.1244 420.876C49.4127 440.164 75.5733 451 102.851 451H348.149C375.427 451 401.587 440.164 420.876 420.876C440.164 401.587 451 375.427 451 348.149V102.851C451 75.5733 440.164 49.4127 420.876 30.1244C401.587 10.8361 375.427 0 348.149 0ZM152.484 364.084C152.557 365.343 152.371 366.604 151.939 367.788C151.506 368.973 150.837 370.056 149.97 370.972C149.104 371.889 148.059 372.618 146.901 373.116C145.742 373.614 144.494 373.87 143.233 373.867H102.065C99.584 373.801 97.2276 372.767 95.499 370.987C93.7704 369.206 92.8066 366.82 92.8135 364.339V193.121C92.7795 191.884 92.9936 190.654 93.4433 189.502C93.893 188.35 94.569 187.3 95.4315 186.414C96.294 185.528 97.3254 184.823 98.4647 184.343C99.604 183.862 100.828 183.614 102.065 183.615H143.233C144.47 183.611 145.696 183.856 146.837 184.336C147.978 184.816 149.01 185.52 149.873 186.407C150.737 187.294 151.412 188.345 151.861 189.498C152.31 190.652 152.521 191.884 152.484 193.121V364.084ZM121.886 147.604C117.428 147.571 113.022 146.66 108.916 144.923C104.811 143.187 101.089 140.659 97.9605 137.483C94.8324 134.308 92.3604 130.548 90.6856 126.417C89.0108 122.286 88.166 117.866 88.1994 113.409C88.2328 108.952 89.1438 104.545 90.8803 100.44C92.6169 96.3349 95.145 92.6121 98.3203 89.484C101.496 86.3559 105.256 83.8839 109.387 82.2091C113.517 80.5343 117.937 79.6895 122.394 79.7229C131.241 80.0106 139.626 83.7443 145.758 90.1273C151.891 96.5103 155.286 105.037 155.22 113.889C155.153 122.74 151.63 131.215 145.403 137.505C139.175 143.795 130.736 147.403 121.886 147.558M372.063 363.807C372.058 366.145 371.143 368.39 369.511 370.065C367.879 371.74 365.659 372.714 363.321 372.78H319.863C317.523 372.708 315.303 371.73 313.672 370.051C312.04 368.372 311.125 366.124 311.121 363.784V284.593C311.121 272.774 314.729 233.179 279.759 233.179C252.491 233.179 247.102 260.932 246.061 273.283V365.588C246.062 367.932 245.15 370.186 243.518 371.869C241.886 373.553 239.662 374.535 237.318 374.608H195.156C193.972 374.608 192.801 374.374 191.707 373.92C190.614 373.467 189.622 372.802 188.786 371.964C187.95 371.126 187.288 370.132 186.837 369.038C186.386 367.943 186.156 366.771 186.159 365.588V192.288C186.225 189.942 187.206 187.715 188.891 186.082C190.576 184.449 192.832 183.538 195.179 183.545H237.318C239.665 183.538 241.922 184.449 243.607 186.082C245.292 187.715 246.272 189.942 246.339 192.288V207.206C252.491 198.2 260.986 191.045 270.907 186.513C280.827 181.981 291.797 180.243 302.633 181.487C372.827 181.487 372.572 247.055 372.572 284.338L372.063 363.807Z" fill="#7A1E48"/>
</svg>
